<svg width="46" height="45" fill="none" xmlns="http://www.w3.org/2000/svg"><g clip-path="url(#clip0)"><path d="M.805 22.5c0 12.428 10.072 22.5 22.5 22.5 12.427 0 22.5-10.072 22.5-22.5 0-12.427-10.073-22.5-22.5-22.5C10.876 0 .804 10.073.804 22.5z" fill="#FA6E51"/><path d="M45.751 23.976L35.255 13.479l-5.426-5.425a.609.609 0 00-.43-.179h-10.97a.61.61 0 00-.609.61v3.046h-6.703a.61.61 0 00-.61.61v24.375a.6.6 0 00.267.49c.04.057 7.273 7.29 7.331 7.33.02.028.046.046.069.07a22.54 22.54 0 005.13.594c11.932 0 21.687-9.286 22.447-21.024z" fill="#E8573F"/><path d="M36.054 14.344a.61.61 0 00-.131-.197l-6.094-6.093a.61.61 0 00-.43-.179h-10.97a.61.61 0 00-.609.61v3.046h-6.703a.61.61 0 00-.61.61v24.375a.61.61 0 00.61.609H28.18a.61.61 0 00.609-.61V33.47h6.703a.61.61 0 00.61-.61V14.58a.606.606 0 00-.048-.236zm-6.046-4.389l4.013 4.014h-4.013V9.955zM27.57 35.906H11.727V12.75h9.75v5.484c0 .337.272.61.609.61h5.484v17.062zm-.861-18.281h-4.014v-4.013l4.014 4.013zm2.08 14.625V18.234a.609.609 0 00-.179-.43l-6.093-6.094a.611.611 0 00-.431-.179h-3.047V9.094h9.75v5.484c0 .337.273.61.61.61h5.484V32.25h-6.094z" fill="#F4F6F9"/></g><defs><clipPath id="clip0"><path fill="#fff" transform="translate(.805)" d="M0 0h45v45H0z"/></clipPath></defs></svg>