<svg width="45" height="45" fill="none" xmlns="http://www.w3.org/2000/svg"><path d="M22.5 45C34.926 45 45 34.926 45 22.5S34.926 0 22.5 0 0 10.074 0 22.5 10.074 45 22.5 45z" fill="#4D76A1"/><path fill-rule="evenodd" clip-rule="evenodd" d="M21.455 32.368h1.766s.533-.058.806-.352c.25-.27.242-.776.242-.776s-.034-2.37 1.066-2.718c1.084-.344 2.476 2.29 3.951 3.303 1.116.766 1.964.598 1.964.598l3.946-.055s2.064-.127 1.085-1.75c-.08-.132-.57-1.2-2.934-3.394-2.474-2.296-2.142-1.925.838-5.897 1.815-2.419 2.54-3.896 2.314-4.528-.217-.602-1.551-.443-1.551-.443l-4.443.027s-.329-.044-.573.102c-.239.143-.392.476-.392.476s-.704 1.872-1.641 3.464c-1.979 3.36-2.77 3.537-3.093 3.328-.752-.486-.564-1.953-.564-2.995 0-3.255.494-4.612-.961-4.964-.483-.116-.839-.193-2.074-.206-1.585-.016-2.926.005-3.686.377-.505.248-.895.8-.658.83.294.04.959.18 1.311.66.456.62.44 2.01.44 2.01s.261 3.832-.611 4.308c-.6.327-1.42-.34-3.184-3.387-.904-1.561-1.586-3.287-1.586-3.287s-.132-.322-.366-.494c-.285-.21-.683-.276-.683-.276l-4.221.028s-.634.017-.867.293c-.207.245-.016.752-.016.752s3.305 7.732 7.047 11.628c3.431 3.573 7.328 3.338 7.328 3.338z" fill="#fff"/></svg>